# xmcd CD database file
#
# Track frame offsets:
#	150
#	3910
#	25765
#	49747
#	75517
#	80667
#	119750
#	137497
#	150667
#	176177
#	198000
#
# Disc length: 3374 seconds
#
# Revision: 0
# Processed by: cddbd v1.5.2PL0 Copyright (c) Steve Scherf et al.
# Submitted via: CDex 1.51
#
DISCID=820d2c0b
DTITLE=Múm - Finally we are no one
DYEAR=2002
DGENRE=New Age
TTITLE0=Sleep/Swim
TTITLE1=Green Grass of Tunnel
TTITLE2=We have a Map of the Piano
TTITLE3=Don't be afraid, You have just got your eyes closed!
TTITLE4=Behind two hills...A swimmingpool
TTITLE5=K/Half Noise
TTITLE6=Now there's that fear again
TTITLE7=Faraway Swimmingpool
TTITLE8=I can't feel my hand any more, It's alright, sleep still
TTITLE9=Finally we are No One
TTITLE10=The Land Between Solar Systems
EXTD=YEAR: 2002
EXTT0=
EXTT1=
EXTT2=
EXTT3=
EXTT4=
EXTT5=
EXTT6=
EXTT7=
EXTT8=
EXTT9=
EXTT10=
PLAYORDER=
